<mxfile host="app.diagrams.net" modified="2024-03-07T10:32:58.453Z" agent="Mozilla/5.0 (Windows NT 10.0; Win64; x64; rv:123.0) Gecko/20100101 Firefox/123.0" etag="vvNT3RGQb1rY9pU_vNLw" version="24.0.2" type="device">
  <diagram name="Page-1" id="qbSfK9no98UvLTmrXdRo">
    <mxGraphModel dx="3267" dy="864" grid="1" gridSize="10" guides="1" tooltips="1" connect="1" arrows="1" fold="1" page="1" pageScale="1" pageWidth="827" pageHeight="1169" math="0" shadow="0">
      <root>
        <mxCell id="0" />
        <mxCell id="1" parent="0" />
        <mxCell id="XzGqdOcjE8EvAO7VEIdA-1" value="Player" style="rounded=0;whiteSpace=wrap;html=1;" vertex="1" parent="1">
          <mxGeometry x="550" y="140" width="120" height="60" as="geometry" />
        </mxCell>
        <mxCell id="XzGqdOcjE8EvAO7VEIdA-3" value="Battle" style="rhombus;whiteSpace=wrap;html=1;" vertex="1" parent="1">
          <mxGeometry x="350" y="145" width="80" height="50" as="geometry" />
        </mxCell>
        <mxCell id="XzGqdOcjE8EvAO7VEIdA-4" value="Enemy" style="rounded=0;whiteSpace=wrap;html=1;" vertex="1" parent="1">
          <mxGeometry x="53" y="140" width="120" height="60" as="geometry" />
        </mxCell>
        <mxCell id="XzGqdOcjE8EvAO7VEIdA-5" value="Item" style="rounded=0;whiteSpace=wrap;html=1;" vertex="1" parent="1">
          <mxGeometry x="550" y="460" width="120" height="60" as="geometry" />
        </mxCell>
        <mxCell id="XzGqdOcjE8EvAO7VEIdA-6" value="Inventory" style="rhombus;whiteSpace=wrap;html=1;" vertex="1" parent="1">
          <mxGeometry x="570" y="310" width="80" height="50" as="geometry" />
        </mxCell>
        <mxCell id="XzGqdOcjE8EvAO7VEIdA-7" value="" style="endArrow=none;html=1;rounded=0;entryX=0.5;entryY=1;entryDx=0;entryDy=0;exitX=0.5;exitY=0;exitDx=0;exitDy=0;" edge="1" parent="1" source="XzGqdOcjE8EvAO7VEIdA-6" target="XzGqdOcjE8EvAO7VEIdA-1">
          <mxGeometry width="50" height="50" relative="1" as="geometry">
            <mxPoint x="390" y="420" as="sourcePoint" />
            <mxPoint x="440" y="370" as="targetPoint" />
          </mxGeometry>
        </mxCell>
        <mxCell id="XzGqdOcjE8EvAO7VEIdA-8" value="" style="endArrow=none;html=1;rounded=0;entryX=0.5;entryY=1;entryDx=0;entryDy=0;exitX=0.5;exitY=0;exitDx=0;exitDy=0;" edge="1" parent="1" source="XzGqdOcjE8EvAO7VEIdA-5" target="XzGqdOcjE8EvAO7VEIdA-6">
          <mxGeometry width="50" height="50" relative="1" as="geometry">
            <mxPoint x="770" y="400" as="sourcePoint" />
            <mxPoint x="770" y="290" as="targetPoint" />
          </mxGeometry>
        </mxCell>
        <mxCell id="XzGqdOcjE8EvAO7VEIdA-9" value="" style="endArrow=none;html=1;rounded=0;entryX=1;entryY=0.5;entryDx=0;entryDy=0;exitX=0;exitY=0.5;exitDx=0;exitDy=0;" edge="1" parent="1" source="XzGqdOcjE8EvAO7VEIdA-1" target="XzGqdOcjE8EvAO7VEIdA-3">
          <mxGeometry width="50" height="50" relative="1" as="geometry">
            <mxPoint x="440" y="340" as="sourcePoint" />
            <mxPoint x="440" y="230" as="targetPoint" />
          </mxGeometry>
        </mxCell>
        <mxCell id="XzGqdOcjE8EvAO7VEIdA-10" value="" style="endArrow=none;html=1;rounded=0;entryX=1;entryY=0.5;entryDx=0;entryDy=0;exitX=0;exitY=0.5;exitDx=0;exitDy=0;" edge="1" parent="1" source="XzGqdOcjE8EvAO7VEIdA-3" target="XzGqdOcjE8EvAO7VEIdA-4">
          <mxGeometry width="50" height="50" relative="1" as="geometry">
            <mxPoint x="500" y="280" as="sourcePoint" />
            <mxPoint x="380" y="280" as="targetPoint" />
          </mxGeometry>
        </mxCell>
        <mxCell id="XzGqdOcjE8EvAO7VEIdA-11" value="Player ID" style="ellipse;whiteSpace=wrap;html=1;fontStyle=4" vertex="1" parent="1">
          <mxGeometry x="390" y="10" width="70" height="50" as="geometry" />
        </mxCell>
        <mxCell id="XzGqdOcjE8EvAO7VEIdA-12" value="Name" style="ellipse;whiteSpace=wrap;html=1;" vertex="1" parent="1">
          <mxGeometry x="480" y="10" width="70" height="50" as="geometry" />
        </mxCell>
        <mxCell id="XzGqdOcjE8EvAO7VEIdA-13" value="Life" style="ellipse;whiteSpace=wrap;html=1;" vertex="1" parent="1">
          <mxGeometry x="574" y="10" width="70" height="50" as="geometry" />
        </mxCell>
        <mxCell id="XzGqdOcjE8EvAO7VEIdA-15" value="Defense" style="ellipse;whiteSpace=wrap;html=1;" vertex="1" parent="1">
          <mxGeometry x="674" y="10" width="70" height="50" as="geometry" />
        </mxCell>
        <mxCell id="XzGqdOcjE8EvAO7VEIdA-16" value="Class" style="ellipse;whiteSpace=wrap;html=1;" vertex="1" parent="1">
          <mxGeometry x="776" y="10" width="70" height="50" as="geometry" />
        </mxCell>
        <mxCell id="XzGqdOcjE8EvAO7VEIdA-17" value="&lt;div&gt;Class&lt;/div&gt;" style="rounded=0;whiteSpace=wrap;html=1;" vertex="1" parent="1">
          <mxGeometry x="990" y="140" width="120" height="60" as="geometry" />
        </mxCell>
        <mxCell id="XzGqdOcjE8EvAO7VEIdA-18" value="" style="endArrow=none;html=1;rounded=0;entryX=1;entryY=0.5;entryDx=0;entryDy=0;exitX=0;exitY=0.5;exitDx=0;exitDy=0;" edge="1" parent="1" source="XzGqdOcjE8EvAO7VEIdA-17" target="XzGqdOcjE8EvAO7VEIdA-1">
          <mxGeometry width="50" height="50" relative="1" as="geometry">
            <mxPoint x="915" y="180" as="sourcePoint" />
            <mxPoint x="795" y="180" as="targetPoint" />
          </mxGeometry>
        </mxCell>
        <mxCell id="XzGqdOcjE8EvAO7VEIdA-19" value="" style="endArrow=none;html=1;rounded=0;entryX=1;entryY=1;entryDx=0;entryDy=0;exitX=0.5;exitY=0;exitDx=0;exitDy=0;" edge="1" parent="1" source="XzGqdOcjE8EvAO7VEIdA-1" target="XzGqdOcjE8EvAO7VEIdA-11">
          <mxGeometry width="50" height="50" relative="1" as="geometry">
            <mxPoint x="500" y="150" as="sourcePoint" />
            <mxPoint x="550" y="100" as="targetPoint" />
          </mxGeometry>
        </mxCell>
        <mxCell id="XzGqdOcjE8EvAO7VEIdA-20" value="" style="endArrow=none;html=1;rounded=0;entryX=1;entryY=1;entryDx=0;entryDy=0;exitX=0.5;exitY=0;exitDx=0;exitDy=0;" edge="1" parent="1" source="XzGqdOcjE8EvAO7VEIdA-1" target="XzGqdOcjE8EvAO7VEIdA-12">
          <mxGeometry width="50" height="50" relative="1" as="geometry">
            <mxPoint x="620" y="150" as="sourcePoint" />
            <mxPoint x="435" y="70" as="targetPoint" />
          </mxGeometry>
        </mxCell>
        <mxCell id="XzGqdOcjE8EvAO7VEIdA-21" value="" style="endArrow=none;html=1;rounded=0;entryX=0.5;entryY=1;entryDx=0;entryDy=0;exitX=0.5;exitY=0;exitDx=0;exitDy=0;" edge="1" parent="1" source="XzGqdOcjE8EvAO7VEIdA-1" target="XzGqdOcjE8EvAO7VEIdA-13">
          <mxGeometry width="50" height="50" relative="1" as="geometry">
            <mxPoint x="630" y="160" as="sourcePoint" />
            <mxPoint x="445" y="80" as="targetPoint" />
          </mxGeometry>
        </mxCell>
        <mxCell id="XzGqdOcjE8EvAO7VEIdA-22" value="" style="endArrow=none;html=1;rounded=0;entryX=0;entryY=1;entryDx=0;entryDy=0;exitX=0.5;exitY=0;exitDx=0;exitDy=0;" edge="1" parent="1" source="XzGqdOcjE8EvAO7VEIdA-1" target="XzGqdOcjE8EvAO7VEIdA-15">
          <mxGeometry width="50" height="50" relative="1" as="geometry">
            <mxPoint x="640" y="170" as="sourcePoint" />
            <mxPoint x="455" y="90" as="targetPoint" />
          </mxGeometry>
        </mxCell>
        <mxCell id="XzGqdOcjE8EvAO7VEIdA-23" value="" style="endArrow=none;html=1;rounded=0;entryX=0;entryY=1;entryDx=0;entryDy=0;exitX=0.5;exitY=0;exitDx=0;exitDy=0;" edge="1" parent="1" source="XzGqdOcjE8EvAO7VEIdA-1" target="XzGqdOcjE8EvAO7VEIdA-16">
          <mxGeometry width="50" height="50" relative="1" as="geometry">
            <mxPoint x="650" y="180" as="sourcePoint" />
            <mxPoint x="465" y="100" as="targetPoint" />
          </mxGeometry>
        </mxCell>
        <mxCell id="XzGqdOcjE8EvAO7VEIdA-24" value="&lt;div&gt;Name&lt;/div&gt;" style="ellipse;whiteSpace=wrap;html=1;" vertex="1" parent="1">
          <mxGeometry x="972.5" y="10" width="70" height="50" as="geometry" />
        </mxCell>
        <mxCell id="XzGqdOcjE8EvAO7VEIdA-26" value="Class ID" style="ellipse;whiteSpace=wrap;html=1;fontStyle=4" vertex="1" parent="1">
          <mxGeometry x="872.5" y="10" width="70" height="50" as="geometry" />
        </mxCell>
        <mxCell id="XzGqdOcjE8EvAO7VEIdA-27" value="&lt;div&gt;Attack&lt;/div&gt;&lt;div&gt;Delay&lt;br&gt;&lt;/div&gt;" style="ellipse;whiteSpace=wrap;html=1;" vertex="1" parent="1">
          <mxGeometry x="1077.5" y="10" width="70" height="50" as="geometry" />
        </mxCell>
        <mxCell id="XzGqdOcjE8EvAO7VEIdA-28" value="Base Attack" style="ellipse;whiteSpace=wrap;html=1;" vertex="1" parent="1">
          <mxGeometry x="1180" y="10" width="70" height="50" as="geometry" />
        </mxCell>
        <mxCell id="XzGqdOcjE8EvAO7VEIdA-29" value="" style="endArrow=none;html=1;rounded=0;entryX=0.5;entryY=1;entryDx=0;entryDy=0;exitX=0.5;exitY=0;exitDx=0;exitDy=0;" edge="1" parent="1" source="XzGqdOcjE8EvAO7VEIdA-17" target="XzGqdOcjE8EvAO7VEIdA-26">
          <mxGeometry width="50" height="50" relative="1" as="geometry">
            <mxPoint x="620" y="150" as="sourcePoint" />
            <mxPoint x="796" y="63" as="targetPoint" />
          </mxGeometry>
        </mxCell>
        <mxCell id="XzGqdOcjE8EvAO7VEIdA-30" value="" style="endArrow=none;html=1;rounded=0;entryX=0.5;entryY=1;entryDx=0;entryDy=0;" edge="1" parent="1" target="XzGqdOcjE8EvAO7VEIdA-24">
          <mxGeometry width="50" height="50" relative="1" as="geometry">
            <mxPoint x="1050" y="140" as="sourcePoint" />
            <mxPoint x="918" y="70" as="targetPoint" />
          </mxGeometry>
        </mxCell>
        <mxCell id="XzGqdOcjE8EvAO7VEIdA-31" value="" style="endArrow=none;html=1;rounded=0;entryX=0.5;entryY=1;entryDx=0;entryDy=0;exitX=0.5;exitY=0;exitDx=0;exitDy=0;" edge="1" parent="1" source="XzGqdOcjE8EvAO7VEIdA-17" target="XzGqdOcjE8EvAO7VEIdA-27">
          <mxGeometry width="50" height="50" relative="1" as="geometry">
            <mxPoint x="1060" y="150" as="sourcePoint" />
            <mxPoint x="1018" y="70" as="targetPoint" />
          </mxGeometry>
        </mxCell>
        <mxCell id="XzGqdOcjE8EvAO7VEIdA-32" value="" style="endArrow=none;html=1;rounded=0;entryX=0.5;entryY=1;entryDx=0;entryDy=0;exitX=0.5;exitY=0;exitDx=0;exitDy=0;" edge="1" parent="1" source="XzGqdOcjE8EvAO7VEIdA-17" target="XzGqdOcjE8EvAO7VEIdA-28">
          <mxGeometry width="50" height="50" relative="1" as="geometry">
            <mxPoint x="1060" y="150" as="sourcePoint" />
            <mxPoint x="1123" y="70" as="targetPoint" />
          </mxGeometry>
        </mxCell>
        <mxCell id="XzGqdOcjE8EvAO7VEIdA-34" value="Item ID" style="ellipse;whiteSpace=wrap;html=1;fontStyle=4" vertex="1" parent="1">
          <mxGeometry x="720" y="380" width="70" height="50" as="geometry" />
        </mxCell>
        <mxCell id="XzGqdOcjE8EvAO7VEIdA-35" value="&lt;div&gt;Name&lt;/div&gt;" style="ellipse;whiteSpace=wrap;html=1;" vertex="1" parent="1">
          <mxGeometry x="757" y="460" width="70" height="50" as="geometry" />
        </mxCell>
        <mxCell id="XzGqdOcjE8EvAO7VEIdA-36" value="Type" style="ellipse;whiteSpace=wrap;html=1;" vertex="1" parent="1">
          <mxGeometry x="757" y="550" width="70" height="50" as="geometry" />
        </mxCell>
        <mxCell id="XzGqdOcjE8EvAO7VEIdA-37" value="Power" style="ellipse;whiteSpace=wrap;html=1;" vertex="1" parent="1">
          <mxGeometry x="674" y="610" width="70" height="50" as="geometry" />
        </mxCell>
        <mxCell id="XzGqdOcjE8EvAO7VEIdA-38" value="" style="endArrow=none;html=1;rounded=0;entryX=0;entryY=1;entryDx=0;entryDy=0;exitX=1;exitY=0.5;exitDx=0;exitDy=0;" edge="1" parent="1" source="XzGqdOcjE8EvAO7VEIdA-5" target="XzGqdOcjE8EvAO7VEIdA-34">
          <mxGeometry width="50" height="50" relative="1" as="geometry">
            <mxPoint x="480" y="640" as="sourcePoint" />
            <mxPoint x="530" y="590" as="targetPoint" />
          </mxGeometry>
        </mxCell>
        <mxCell id="XzGqdOcjE8EvAO7VEIdA-39" value="" style="endArrow=none;html=1;rounded=0;entryX=0;entryY=0.5;entryDx=0;entryDy=0;exitX=1;exitY=0.5;exitDx=0;exitDy=0;" edge="1" parent="1" source="XzGqdOcjE8EvAO7VEIdA-5" target="XzGqdOcjE8EvAO7VEIdA-35">
          <mxGeometry width="50" height="50" relative="1" as="geometry">
            <mxPoint x="680" y="500" as="sourcePoint" />
            <mxPoint x="740" y="433" as="targetPoint" />
          </mxGeometry>
        </mxCell>
        <mxCell id="XzGqdOcjE8EvAO7VEIdA-40" value="" style="endArrow=none;html=1;rounded=0;entryX=0;entryY=0;entryDx=0;entryDy=0;exitX=1;exitY=0.5;exitDx=0;exitDy=0;" edge="1" parent="1" source="XzGqdOcjE8EvAO7VEIdA-5" target="XzGqdOcjE8EvAO7VEIdA-36">
          <mxGeometry width="50" height="50" relative="1" as="geometry">
            <mxPoint x="680" y="500" as="sourcePoint" />
            <mxPoint x="767" y="495" as="targetPoint" />
          </mxGeometry>
        </mxCell>
        <mxCell id="XzGqdOcjE8EvAO7VEIdA-41" value="" style="endArrow=none;html=1;rounded=0;entryX=0.5;entryY=0;entryDx=0;entryDy=0;exitX=1;exitY=0.5;exitDx=0;exitDy=0;" edge="1" parent="1" source="XzGqdOcjE8EvAO7VEIdA-5" target="XzGqdOcjE8EvAO7VEIdA-37">
          <mxGeometry width="50" height="50" relative="1" as="geometry">
            <mxPoint x="680" y="500" as="sourcePoint" />
            <mxPoint x="777" y="567" as="targetPoint" />
          </mxGeometry>
        </mxCell>
        <mxCell id="XzGqdOcjE8EvAO7VEIdA-43" value="Player ID" style="ellipse;whiteSpace=wrap;html=1;fontStyle=4" vertex="1" parent="1">
          <mxGeometry x="-106" y="10" width="70" height="50" as="geometry" />
        </mxCell>
        <mxCell id="XzGqdOcjE8EvAO7VEIdA-44" value="Name" style="ellipse;whiteSpace=wrap;html=1;" vertex="1" parent="1">
          <mxGeometry x="-16" y="10" width="70" height="50" as="geometry" />
        </mxCell>
        <mxCell id="XzGqdOcjE8EvAO7VEIdA-45" value="Life" style="ellipse;whiteSpace=wrap;html=1;" vertex="1" parent="1">
          <mxGeometry x="78" y="10" width="70" height="50" as="geometry" />
        </mxCell>
        <mxCell id="XzGqdOcjE8EvAO7VEIdA-46" value="Defense" style="ellipse;whiteSpace=wrap;html=1;" vertex="1" parent="1">
          <mxGeometry x="178" y="10" width="70" height="50" as="geometry" />
        </mxCell>
        <mxCell id="XzGqdOcjE8EvAO7VEIdA-49" value="" style="endArrow=none;html=1;rounded=0;entryX=0.5;entryY=1;entryDx=0;entryDy=0;exitX=0.5;exitY=0;exitDx=0;exitDy=0;" edge="1" parent="1" source="XzGqdOcjE8EvAO7VEIdA-4" target="XzGqdOcjE8EvAO7VEIdA-45">
          <mxGeometry width="50" height="50" relative="1" as="geometry">
            <mxPoint x="-40" y="300" as="sourcePoint" />
            <mxPoint x="10" y="250" as="targetPoint" />
          </mxGeometry>
        </mxCell>
        <mxCell id="XzGqdOcjE8EvAO7VEIdA-50" value="" style="endArrow=none;html=1;rounded=0;entryX=0.5;entryY=1;entryDx=0;entryDy=0;exitX=0.5;exitY=0;exitDx=0;exitDy=0;" edge="1" parent="1" source="XzGqdOcjE8EvAO7VEIdA-4" target="XzGqdOcjE8EvAO7VEIdA-44">
          <mxGeometry width="50" height="50" relative="1" as="geometry">
            <mxPoint x="123" y="150" as="sourcePoint" />
            <mxPoint x="123" y="70" as="targetPoint" />
          </mxGeometry>
        </mxCell>
        <mxCell id="XzGqdOcjE8EvAO7VEIdA-51" value="" style="endArrow=none;html=1;rounded=0;entryX=0.5;entryY=1;entryDx=0;entryDy=0;exitX=0.5;exitY=0;exitDx=0;exitDy=0;" edge="1" parent="1" source="XzGqdOcjE8EvAO7VEIdA-4" target="XzGqdOcjE8EvAO7VEIdA-43">
          <mxGeometry width="50" height="50" relative="1" as="geometry">
            <mxPoint x="133" y="160" as="sourcePoint" />
            <mxPoint x="29" y="70" as="targetPoint" />
          </mxGeometry>
        </mxCell>
        <mxCell id="XzGqdOcjE8EvAO7VEIdA-52" value="" style="endArrow=none;html=1;rounded=0;entryX=0.5;entryY=1;entryDx=0;entryDy=0;exitX=0.5;exitY=0;exitDx=0;exitDy=0;" edge="1" parent="1" source="XzGqdOcjE8EvAO7VEIdA-4" target="XzGqdOcjE8EvAO7VEIdA-46">
          <mxGeometry width="50" height="50" relative="1" as="geometry">
            <mxPoint x="143" y="170" as="sourcePoint" />
            <mxPoint x="-61" y="70" as="targetPoint" />
          </mxGeometry>
        </mxCell>
        <mxCell id="XzGqdOcjE8EvAO7VEIdA-54" value="&lt;div&gt;Attack&lt;/div&gt;&lt;div&gt;Delay&lt;br&gt;&lt;/div&gt;" style="ellipse;whiteSpace=wrap;html=1;" vertex="1" parent="1">
          <mxGeometry x="270" y="10" width="70" height="50" as="geometry" />
        </mxCell>
        <mxCell id="XzGqdOcjE8EvAO7VEIdA-55" value="" style="endArrow=none;html=1;rounded=0;entryX=0.5;entryY=1;entryDx=0;entryDy=0;exitX=0.5;exitY=0;exitDx=0;exitDy=0;" edge="1" parent="1" source="XzGqdOcjE8EvAO7VEIdA-4" target="XzGqdOcjE8EvAO7VEIdA-54">
          <mxGeometry width="50" height="50" relative="1" as="geometry">
            <mxPoint x="123" y="150" as="sourcePoint" />
            <mxPoint x="223" y="70" as="targetPoint" />
          </mxGeometry>
        </mxCell>
        <mxCell id="XzGqdOcjE8EvAO7VEIdA-56" value="CombatLog" style="rounded=0;whiteSpace=wrap;html=1;" vertex="1" parent="1">
          <mxGeometry x="53" y="430" width="120" height="60" as="geometry" />
        </mxCell>
        <mxCell id="XzGqdOcjE8EvAO7VEIdA-57" value="" style="endArrow=none;html=1;rounded=0;entryX=0.5;entryY=1;entryDx=0;entryDy=0;exitX=0.5;exitY=0;exitDx=0;exitDy=0;" edge="1" parent="1" source="XzGqdOcjE8EvAO7VEIdA-56" target="XzGqdOcjE8EvAO7VEIdA-4">
          <mxGeometry width="50" height="50" relative="1" as="geometry">
            <mxPoint x="110" y="280" as="sourcePoint" />
            <mxPoint x="160" y="230" as="targetPoint" />
          </mxGeometry>
        </mxCell>
        <mxCell id="XzGqdOcjE8EvAO7VEIdA-58" value="" style="endArrow=none;html=1;rounded=0;exitX=1;exitY=0.5;exitDx=0;exitDy=0;entryX=0.25;entryY=1;entryDx=0;entryDy=0;" edge="1" parent="1" source="XzGqdOcjE8EvAO7VEIdA-56" target="XzGqdOcjE8EvAO7VEIdA-1">
          <mxGeometry width="50" height="50" relative="1" as="geometry">
            <mxPoint x="230" y="450" as="sourcePoint" />
            <mxPoint x="280" y="400" as="targetPoint" />
            <Array as="points">
              <mxPoint x="280" y="460" />
              <mxPoint x="280" y="240" />
              <mxPoint x="580" y="240" />
            </Array>
          </mxGeometry>
        </mxCell>
      </root>
    </mxGraphModel>
  </diagram>
</mxfile>
